<svg xmlns="http://www.w3.org/2000/svg" width="118" height="156" viewBox="0 0 118 156"><defs><style>.cls-1{fill:#8ce8db;}</style></defs><g id="Layer_2" data-name="Layer 2"><g id="Layer_6" data-name="Layer 6"><path class="cls-1" d="M118,57A59,59,0,0,0,.05,57c0,.33,0,.66,0,1v83a15,15,0,0,0,30,0v-7a15,15,0,0,0,30,0v-8.57A15,15,0,0,0,88,118v23a15,15,0,0,0,30,0V58C118,57.67,118,57.34,118,57Z"/><path d="M13.52,55.15a19,19,0,1,1,38.08-.42"/><path d="M66.44,54.57a19,19,0,0,1,38.08-.41"/><circle class="cls-1" cx="32.59" cy="56.02" r="9"/><circle class="cls-1" cx="85.96" cy="55.76" r="9"/></g></g></svg>