<svg xmlns="http://www.w3.org/2000/svg" width="27.782" height="27.782" viewBox="0 0 27.782 27.782">
  <path id="iconmonstr-linkedin-3" d="M21.994,0H5.788A5.789,5.789,0,0,0,0,5.788V21.994a5.789,5.789,0,0,0,5.788,5.788H21.994a5.788,5.788,0,0,0,5.788-5.788V5.788A5.788,5.788,0,0,0,21.994,0ZM9.261,21.994H5.788V9.261H9.261ZM7.524,7.793A2.042,2.042,0,1,1,9.55,5.751,2.034,2.034,0,0,1,7.524,7.793Zm15.627,14.2H19.679V15.507c0-3.9-4.63-3.6-4.63,0v6.487H11.576V9.261h3.473V11.3c1.616-2.994,8.1-3.215,8.1,2.866Z" fill="#171717"/>
</svg>
