<svg xmlns="http://www.w3.org/2000/svg" width="36" height="30" viewBox="0 0 36 30">
  <path id="noun-website-redirecting-4698289" d="M73,76.662h30a3,3,0,0,0,3-3v-24a3,3,0,0,0-3-3H73a3,3,0,0,0-3,3v24a3,3,0,0,0,3,3Zm30-22.5v19.5H73v-19.5Zm-11.121,6H83.5a4.5,4.5,0,0,0,0,9H85a1.5,1.5,0,1,0,0-3H83.5a1.5,1.5,0,0,1,0-3h8.379l-.441.438a1.5,1.5,0,1,0,2.124,2.124l3-3a1.5,1.5,0,0,0,0-2.124l-3-3a1.5,1.5,0,0,0-2.124,2.124Zm-2.379,6a1.5,1.5,0,1,1-1.5,1.5A1.5,1.5,0,0,1,89.5,66.162Zm10.5-16.5v1.5h3v-1.5Z" transform="translate(-70.002 -46.662)" fill="#171717" fill-rule="evenodd"/>
</svg>
